<svg xmlns="http://www.w3.org/2000/svg" width="8" height="4">
  <path fill="#2d2d2d" d="M8 4H7V3h1z"/>
  <path fill="#e84444" d="M0 0h1v1H0z"/>
  <path fill="#e8b844" d="M2 0H1v1h1z"/>
  <path fill="#44e857" d="M4 0H3v1h1z"/>
  <path fill="#a4e844" d="M2 0h1v1H2z"/>
  <path fill="#df44e8" d="M8 0H7v1h1z"/>
  <path fill="#6b44e8" d="M6 0h1v1H6z"/>
  <path fill="#44e8cb" d="M4 0h1v1H4z"/>
  <path fill="#4491e8" d="M6 0H5v1h1z"/>
  <path fill="#696969" d="M6 4h1V3H6z"/>
  <path fill="#e1e1e1" d="M4 4h1V3H4z"/>
  <path fill="#a5a5a5" d="M6 4H5V3h1z"/>
  <path fill="#4b4b4b" d="M8 2H7v1h1z"/>
  <path fill="#878787" d="M6 2h1v1H6z"/>
  <path fill="#fff" d="M4 2h1v1H4z"/>
  <path fill="#c3c3c3" d="M6 2H5v1h1z"/>
  <path fill="#933535" d="M0 2h1V1H0z"/>
  <path fill="#937735" d="M2 2H1V1h1z"/>
  <path fill="#359340" d="M4 2H3V1h1z"/>
  <path fill="#6c9335" d="M2 2h1V1H2z"/>
  <path fill="#8e3593" d="M8 2H7V1h1z"/>
  <path fill="#4b3593" d="M6 2h1V1H6z"/>
  <path fill="#359382" d="M4 2h1V1H4z"/>
  <path fill="#356193" d="M6 2H5V1h1z"/>
  <path fill="#994343" d="M0 2h1v1H0z"/>
  <path fill="#9a8042" d="M2 2H1v1h1z"/>
  <path fill="#43994c" d="M4 2H3v1h1z"/>
  <path fill="#759943" d="M2 2h1v1H2z"/>
  <path fill="#4a2e2e" d="M0 4h1V3H0z"/>
  <path fill="#4a422e" d="M2 4H1V3h1z"/>
  <path fill="#2e4a31" d="M4 4H3V3h1z"/>
  <path fill="#3e4a2e" d="M2 4h1V3H2z"/>
</svg>
